# xmcd
#
# Track frame offsets:
#	150
#	26671
#	52885
#	74487
#	95678
#	118038
#	144700
#	164478
#	189178
#	210015
#	231986
#	253888
#	282275
#
# Disc length: 4515 seconds
#
# Revision: 8
# Processed by: cddbd v1.5.2PL0 Copyright (c) Steve Scherf et al.
# Submitted via: audiograbber 1.83.01
#
DISCID=bd11a10d
DTITLE=Santana - Supernatural
DYEAR=1999
DGENRE=Rock
TTITLE0=(Da Le)  Yaleo
TTITLE1=Love Of My Life (Feat. Dave Matthews)
TTITLE2=Put Your Lights On (Feat. Everlast)
TTITLE3=Africa Bamba
TTITLE4=Smooth (Feat. Rob Thomas)
TTITLE5=Do You Like The Way? (Feat. Lauryn Hill and Cee-Lo)
TTITLE6=Maria Maria
TTITLE7=Migra
TTITLE8=Corazon Espinado (Feat. Mana)
TTITLE9=Wishing It Was (Feat. Eagle-Eye Cherry)
TTITLE10=El Farol
TTITLE11=Primavera
TTITLE12=The Calling (Feat. Eric Clapton)
EXTD=
EXTT0=
EXTT1=
EXTT2=
EXTT3=
EXTT4=
EXTT5=
EXTT6=
EXTT7=
EXTT8=
EXTT9=
EXTT10=
EXTT11=
EXTT12=
PLAYORDER=
